<svg width="149" height="49" viewBox="0 0 149 49" fill="none" xmlns="http://www.w3.org/2000/svg">
<rect x="0.5" y="5.5" width="143" height="43" fill="#1C1E26" stroke="#F7F9FF"/>
<rect x="5.5" y="0.5" width="143" height="43" fill="#F7F9FF" stroke="#1C1E26"/>
<path d="M56.7548 28V16.24H63.4108V17.424H58.0828V21.184H62.3868V22.352H58.0828V26.816H63.4108V28H56.7548ZM66.2205 23.152V21.968H73.0045V23.152H66.2205ZM75.4143 28V19.52H76.7423V20.24C76.8063 20.112 76.8863 19.9947 76.9823 19.888C77.0783 19.7707 77.1849 19.6747 77.3023 19.6C77.4303 19.5253 77.5636 19.472 77.7023 19.44C77.8516 19.408 78.0009 19.392 78.1503 19.392C78.3316 19.392 78.5076 19.4187 78.6783 19.472C78.8489 19.5147 79.0036 19.5947 79.1423 19.712C79.2916 19.8187 79.4089 19.952 79.4943 20.112C79.5903 20.2613 79.6703 20.4213 79.7343 20.592C79.7876 20.4213 79.8569 20.2613 79.9423 20.112C80.0383 19.952 80.1503 19.8187 80.2783 19.712C80.4169 19.6053 80.5716 19.5253 80.7423 19.472C80.9236 19.4187 81.0996 19.392 81.2703 19.392C81.4516 19.392 81.6276 19.4187 81.7983 19.472C81.9796 19.5147 82.1396 19.5947 82.2783 19.712C82.4169 19.8187 82.5342 19.952 82.6302 20.112C82.7263 20.2613 82.8009 20.4213 82.8542 20.592C82.9076 20.7627 82.9449 20.9387 82.9663 21.12C82.9876 21.2907 82.9983 21.4667 82.9983 21.648V28H81.6703V21.648C81.6703 21.5093 81.6543 21.376 81.6223 21.248C81.6009 21.1093 81.5476 20.992 81.4623 20.896C81.3876 20.7893 81.2863 20.7093 81.1583 20.656C81.0303 20.592 80.9023 20.56 80.7743 20.56C80.6356 20.56 80.5023 20.592 80.3743 20.656C80.2569 20.7093 80.1556 20.7893 80.0703 20.896C79.9956 20.992 79.9423 21.1093 79.9103 21.248C79.8783 21.376 79.8623 21.5093 79.8623 21.648V28H78.5503V21.648C78.5503 21.5093 78.5343 21.376 78.5023 21.248C78.4703 21.1093 78.4116 20.992 78.3263 20.896C78.2516 20.7893 78.1503 20.7093 78.0223 20.656C77.9049 20.592 77.7769 20.56 77.6383 20.56C77.5103 20.56 77.3823 20.592 77.2543 20.656C77.1263 20.7093 77.0196 20.7893 76.9343 20.896C76.8596 20.992 76.8063 21.1093 76.7743 21.248C76.7529 21.376 76.7423 21.5093 76.7423 21.648V28H75.4143ZM88.016 28.128C87.792 28.128 87.5627 28.112 87.328 28.08C87.0933 28.048 86.8693 27.9893 86.656 27.904C86.4427 27.8187 86.2453 27.7013 86.064 27.552C85.8827 27.4027 85.7333 27.232 85.616 27.04C85.4987 26.8373 85.4133 26.624 85.36 26.4C85.3067 26.1653 85.28 25.9307 85.28 25.696C85.28 25.408 85.3227 25.12 85.408 24.832C85.504 24.544 85.6533 24.2933 85.856 24.08C86.0587 23.856 86.2933 23.6747 86.56 23.536C86.8267 23.3973 87.0987 23.2907 87.376 23.216C87.664 23.1307 87.952 23.0773 88.24 23.056C88.5387 23.024 88.8373 23.008 89.136 23.008H90.864V22.16C90.864 21.9893 90.8427 21.824 90.8 21.664C90.7573 21.504 90.6827 21.36 90.576 21.232C90.4693 21.104 90.3413 20.9973 90.192 20.912C90.0533 20.816 89.904 20.7467 89.744 20.704C89.5947 20.6507 89.4347 20.6187 89.264 20.608C89.104 20.5867 88.944 20.576 88.784 20.576C88.5493 20.576 88.3147 20.5973 88.08 20.64C87.8453 20.672 87.6213 20.7467 87.408 20.864C87.2053 20.9707 87.0347 21.1253 86.896 21.328C86.768 21.52 86.704 21.7333 86.704 21.968H85.376C85.376 21.7013 85.4187 21.44 85.504 21.184C85.6 20.928 85.728 20.6987 85.888 20.496C86.0587 20.2827 86.256 20.1067 86.48 19.968C86.704 19.8187 86.944 19.7013 87.2 19.616C87.456 19.5307 87.7173 19.472 87.984 19.44C88.2507 19.408 88.5173 19.392 88.784 19.392C89.0613 19.392 89.3333 19.408 89.6 19.44C89.8773 19.472 90.144 19.536 90.4 19.632C90.6667 19.728 90.9173 19.856 91.152 20.016C91.3867 20.176 91.584 20.368 91.744 20.592C91.904 20.816 92.016 21.0667 92.08 21.344C92.1547 21.6107 92.192 21.8827 92.192 22.16V28H90.864V26.56C90.7467 26.816 90.5813 27.0507 90.368 27.264C90.1653 27.4667 89.936 27.6373 89.68 27.776C89.424 27.904 89.152 27.9947 88.864 28.048C88.5867 28.1013 88.304 28.128 88.016 28.128ZM88.512 26.96C88.704 26.96 88.896 26.944 89.088 26.912C89.28 26.88 89.4667 26.832 89.648 26.768C89.8293 26.704 90 26.6133 90.16 26.496C90.32 26.3787 90.4533 26.24 90.56 26.08C90.6773 25.92 90.7573 25.744 90.8 25.552C90.8427 25.36 90.864 25.168 90.864 24.976V24.176H89.136C88.9547 24.176 88.7733 24.1813 88.592 24.192C88.4213 24.2027 88.2453 24.2293 88.064 24.272C87.8933 24.304 87.7227 24.352 87.552 24.416C87.3813 24.4693 87.2213 24.5493 87.072 24.656C86.9227 24.752 86.8053 24.8853 86.72 25.056C86.6453 25.216 86.608 25.3867 86.608 25.568C86.608 25.7813 86.6613 25.9893 86.768 26.192C86.8853 26.3947 87.04 26.5547 87.232 26.672C87.424 26.7787 87.6267 26.8533 87.84 26.896C88.064 26.9387 88.288 26.96 88.512 26.96ZM95.1778 28V26.816H97.8658V20.688H95.4338V19.52H99.1778V26.816H101.61V28H95.1778ZM98.3938 18.032C98.2551 18.032 98.1218 18.016 97.9938 17.984C97.8658 17.9413 97.7538 17.872 97.6578 17.776C97.5618 17.68 97.4924 17.568 97.4498 17.44C97.4178 17.312 97.4018 17.1787 97.4018 17.04C97.4018 16.9013 97.4178 16.768 97.4498 16.64C97.4924 16.512 97.5618 16.4 97.6578 16.304C97.7538 16.208 97.8658 16.1387 97.9938 16.096C98.1218 16.0533 98.2551 16.032 98.3938 16.032C98.5324 16.032 98.6658 16.0533 98.7938 16.096C98.9218 16.1387 99.0338 16.208 99.1298 16.304C99.2258 16.4 99.2951 16.512 99.3378 16.64C99.3804 16.768 99.4018 16.9013 99.4018 17.04C99.4018 17.1787 99.3804 17.312 99.3378 17.44C99.2951 17.568 99.2258 17.68 99.1298 17.776C99.0338 17.872 98.9218 17.9413 98.7938 17.984C98.6658 18.016 98.5324 18.032 98.3938 18.032ZM104.772 28V26.816H107.46V17.408H105.028V16.24H108.772V26.816H111.204V28H104.772Z" fill="#1C1E26"/>
<path d="M40.6 31.2H21.4C20.0745 31.2 19 30.1255 19 28.8V14.2956C19.0559 13.0111 20.1142 11.9988 21.4 12H40.6C41.9255 12 43 13.0745 43 14.4V28.8C43 30.1255 41.9255 31.2 40.6 31.2ZM21.4 16.6416V28.8H40.6V16.6416L31 23.04L21.4 16.6416ZM22.36 14.4L31 20.16L39.64 14.4H22.36Z" fill="#1C1E26"/>
</svg>
