<svg width="149" height="49" viewBox="0 0 149 49" fill="none" xmlns="http://www.w3.org/2000/svg">
<rect x="0.5" y="5.5" width="143" height="43" fill="#1C1E26" stroke="#F7F9FF"/>
<rect x="5.5" y="0.5" width="143" height="43" fill="#F7F9FF" stroke="#1C1E26"/>
<path d="M56.6268 28V16.24H60.3228C60.6214 16.24 60.9201 16.272 61.2188 16.336C61.5174 16.3893 61.7948 16.4907 62.0508 16.64C62.3068 16.7893 62.5361 16.9813 62.7388 17.216C62.9414 17.44 63.1014 17.6907 63.2188 17.968C63.3361 18.2347 63.4161 18.5173 63.4588 18.816C63.5121 19.1147 63.5388 19.4133 63.5388 19.712C63.5388 20.096 63.4961 20.48 63.4108 20.864C63.3254 21.248 63.1761 21.6 62.9628 21.92C62.7494 22.24 62.4721 22.5067 62.1308 22.72C61.7894 22.9333 61.4321 23.0667 61.0588 23.12L63.8588 28H62.4188L59.6348 23.168H57.9548V28H56.6268ZM60.3228 22C60.5148 22 60.7014 21.9787 60.8828 21.936C61.0641 21.8827 61.2294 21.8027 61.3788 21.696C61.5388 21.5893 61.6721 21.4613 61.7788 21.312C61.8961 21.152 61.9868 20.9867 62.0508 20.816C62.1148 20.6347 62.1574 20.4533 62.1788 20.272C62.2001 20.08 62.2108 19.8933 62.2108 19.712C62.2108 19.52 62.2001 19.3333 62.1788 19.152C62.1574 18.96 62.1148 18.7787 62.0508 18.608C61.9868 18.4267 61.8961 18.2613 61.7788 18.112C61.6721 17.952 61.5388 17.8187 61.3788 17.712C61.2294 17.6053 61.0641 17.5307 60.8828 17.488C60.7014 17.4453 60.5148 17.424 60.3228 17.424H57.9548V22H60.3228ZM69.6445 28.128C69.3352 28.128 69.0205 28.1013 68.7005 28.048C68.3912 27.9947 68.0925 27.8987 67.8045 27.76C67.5272 27.6213 67.2712 27.44 67.0365 27.216C66.8125 26.992 66.6258 26.7413 66.4765 26.464C66.3378 26.1867 66.2365 25.8933 66.1725 25.584C66.1192 25.2747 66.0925 24.96 66.0925 24.64V22.88C66.0925 22.5707 66.1192 22.2613 66.1725 21.952C66.2258 21.632 66.3218 21.3333 66.4605 21.056C66.6098 20.7787 66.7965 20.528 67.0205 20.304C67.2552 20.08 67.5112 19.8987 67.7885 19.76C68.0658 19.6213 68.3592 19.5253 68.6685 19.472C68.9885 19.4187 69.3032 19.392 69.6125 19.392C69.9218 19.392 70.2312 19.4187 70.5405 19.472C70.8605 19.5253 71.1592 19.6213 71.4365 19.76C71.7138 19.8987 71.9645 20.08 72.1885 20.304C72.4232 20.528 72.6098 20.7787 72.7485 21.056C72.8978 21.3333 72.9992 21.632 73.0525 21.952C73.1058 22.2613 73.1325 22.5707 73.1325 22.88V24.352H67.4205V24.64C67.4205 24.8427 67.4365 25.0453 67.4685 25.248C67.5005 25.4507 67.5592 25.6427 67.6445 25.824C67.7298 26.0053 67.8418 26.176 67.9805 26.336C68.1298 26.4853 68.2898 26.608 68.4605 26.704C68.6418 26.7893 68.8338 26.8533 69.0365 26.896C69.2392 26.928 69.4418 26.944 69.6445 26.944C69.8792 26.944 70.1085 26.928 70.3325 26.896C70.5672 26.864 70.7858 26.8 70.9885 26.704C71.1912 26.5973 71.3672 26.4533 71.5165 26.272C71.6765 26.08 71.7618 25.872 71.7725 25.648H73.1005C73.0792 25.904 73.0205 26.16 72.9245 26.416C72.8285 26.6613 72.6898 26.8853 72.5085 27.088C72.3378 27.28 72.1405 27.4453 71.9165 27.584C71.6925 27.7227 71.4525 27.8347 71.1965 27.92C70.9512 27.9947 70.6952 28.048 70.4285 28.08C70.1725 28.112 69.9112 28.128 69.6445 28.128ZM71.8045 23.168V22.88C71.8045 22.6773 71.7885 22.48 71.7565 22.288C71.7245 22.0853 71.6658 21.8933 71.5805 21.712C71.4952 21.52 71.3832 21.3493 71.2445 21.2C71.1165 21.0507 70.9618 20.928 70.7805 20.832C70.5992 20.736 70.4072 20.6667 70.2045 20.624C70.0125 20.5813 69.8152 20.56 69.6125 20.56C69.4098 20.56 69.2072 20.5813 69.0045 20.624C68.8125 20.6667 68.6258 20.736 68.4445 20.832C68.2632 20.928 68.1032 21.0507 67.9645 21.2C67.8365 21.3493 67.7298 21.52 67.6445 21.712C67.5592 21.8933 67.5005 22.0853 67.4685 22.288C67.4365 22.48 67.4205 22.6773 67.4205 22.88V23.168H71.8045ZM78.6943 28.128C78.3956 28.128 78.1023 28.096 77.8143 28.032C77.5369 27.968 77.2756 27.856 77.0303 27.696C76.7849 27.536 76.5716 27.3387 76.3903 27.104C76.2089 26.8693 76.0649 26.6187 75.9583 26.352C75.8516 26.0747 75.7769 25.792 75.7343 25.504C75.7023 25.216 75.6863 24.928 75.6863 24.64V22.88C75.6863 22.592 75.7023 22.304 75.7343 22.016C75.7769 21.728 75.8516 21.4507 75.9583 21.184C76.0649 20.9067 76.2089 20.6507 76.3903 20.416C76.5716 20.1813 76.7849 19.984 77.0303 19.824C77.2756 19.664 77.5369 19.552 77.8143 19.488C78.1023 19.424 78.3956 19.392 78.6943 19.392C78.9609 19.392 79.2276 19.424 79.4943 19.488C79.7716 19.5413 80.0223 19.6427 80.2463 19.792C80.4809 19.9413 80.6836 20.128 80.8543 20.352C81.0249 20.5653 81.1636 20.8 81.2703 21.056V16.24H82.5983V28H81.2703V26.464C81.1636 26.72 81.0249 26.96 80.8543 27.184C80.6836 27.3973 80.4809 27.5787 80.2463 27.728C80.0223 27.8773 79.7716 27.9787 79.4943 28.032C79.2276 28.096 78.9609 28.128 78.6943 28.128ZM79.1903 26.96C79.3929 26.96 79.5903 26.9387 79.7823 26.896C79.9743 26.8533 80.1556 26.784 80.3263 26.688C80.4969 26.5813 80.6463 26.4533 80.7743 26.304C80.9023 26.144 81.0036 25.9733 81.0783 25.792C81.1529 25.6107 81.2009 25.424 81.2223 25.232C81.2543 25.0293 81.2703 24.832 81.2703 24.64V22.88C81.2703 22.688 81.2543 22.496 81.2223 22.304C81.2009 22.1013 81.1529 21.9093 81.0783 21.728C81.0036 21.5467 80.9023 21.3813 80.7743 21.232C80.6463 21.072 80.4969 20.944 80.3263 20.848C80.1556 20.7413 79.9743 20.6667 79.7823 20.624C79.5903 20.5813 79.3929 20.56 79.1903 20.56C78.9876 20.56 78.7849 20.5813 78.5823 20.624C78.3903 20.6667 78.2036 20.736 78.0223 20.832C77.8516 20.928 77.6969 21.056 77.5583 21.216C77.4196 21.3653 77.3076 21.5307 77.2223 21.712C77.1476 21.8933 77.0943 22.0853 77.0623 22.288C77.0303 22.48 77.0143 22.6773 77.0143 22.88V24.64C77.0143 24.8427 77.0303 25.0453 77.0623 25.248C77.0943 25.44 77.1476 25.6267 77.2223 25.808C77.3076 25.9893 77.4196 26.16 77.5583 26.32C77.6969 26.4693 77.8516 26.592 78.0223 26.688C78.2036 26.784 78.3903 26.8533 78.5823 26.896C78.7849 26.9387 78.9876 26.96 79.1903 26.96ZM88.288 28.128C87.9893 28.128 87.696 28.096 87.408 28.032C87.1307 27.968 86.8693 27.856 86.624 27.696C86.3787 27.536 86.1653 27.3387 85.984 27.104C85.8027 26.8693 85.6587 26.6187 85.552 26.352C85.4453 26.0747 85.3707 25.792 85.328 25.504C85.296 25.216 85.28 24.928 85.28 24.64V22.88C85.28 22.592 85.296 22.304 85.328 22.016C85.3707 21.728 85.4453 21.4507 85.552 21.184C85.6587 20.9067 85.8027 20.6507 85.984 20.416C86.1653 20.1813 86.3787 19.984 86.624 19.824C86.8693 19.664 87.1307 19.552 87.408 19.488C87.696 19.424 87.9893 19.392 88.288 19.392C88.5547 19.392 88.8213 19.424 89.088 19.488C89.3653 19.5413 89.616 19.6427 89.84 19.792C90.0747 19.9413 90.2773 20.128 90.448 20.352C90.6187 20.5653 90.7573 20.8 90.864 21.056V16.24H92.192V28H90.864V26.464C90.7573 26.72 90.6187 26.96 90.448 27.184C90.2773 27.3973 90.0747 27.5787 89.84 27.728C89.616 27.8773 89.3653 27.9787 89.088 28.032C88.8213 28.096 88.5547 28.128 88.288 28.128ZM88.784 26.96C88.9867 26.96 89.184 26.9387 89.376 26.896C89.568 26.8533 89.7493 26.784 89.92 26.688C90.0907 26.5813 90.24 26.4533 90.368 26.304C90.496 26.144 90.5973 25.9733 90.672 25.792C90.7467 25.6107 90.7947 25.424 90.816 25.232C90.848 25.0293 90.864 24.832 90.864 24.64V22.88C90.864 22.688 90.848 22.496 90.816 22.304C90.7947 22.1013 90.7467 21.9093 90.672 21.728C90.5973 21.5467 90.496 21.3813 90.368 21.232C90.24 21.072 90.0907 20.944 89.92 20.848C89.7493 20.7413 89.568 20.6667 89.376 20.624C89.184 20.5813 88.9867 20.56 88.784 20.56C88.5813 20.56 88.3787 20.5813 88.176 20.624C87.984 20.6667 87.7973 20.736 87.616 20.832C87.4453 20.928 87.2907 21.056 87.152 21.216C87.0133 21.3653 86.9013 21.5307 86.816 21.712C86.7413 21.8933 86.688 22.0853 86.656 22.288C86.624 22.48 86.608 22.6773 86.608 22.88V24.64C86.608 24.8427 86.624 25.0453 86.656 25.248C86.688 25.44 86.7413 25.6267 86.816 25.808C86.9013 25.9893 87.0133 26.16 87.152 26.32C87.2907 26.4693 87.4453 26.592 87.616 26.688C87.7973 26.784 87.984 26.8533 88.176 26.896C88.3787 26.9387 88.5813 26.96 88.784 26.96ZM95.1778 28V26.816H97.8658V20.688H95.4338V19.52H99.1778V26.816H101.61V28H95.1778ZM98.3938 18.032C98.2551 18.032 98.1218 18.016 97.9938 17.984C97.8658 17.9413 97.7538 17.872 97.6578 17.776C97.5618 17.68 97.4924 17.568 97.4498 17.44C97.4178 17.312 97.4018 17.1787 97.4018 17.04C97.4018 16.9013 97.4178 16.768 97.4498 16.64C97.4924 16.512 97.5618 16.4 97.6578 16.304C97.7538 16.208 97.8658 16.1387 97.9938 16.096C98.1218 16.0533 98.2551 16.032 98.3938 16.032C98.5324 16.032 98.6658 16.0533 98.7938 16.096C98.9218 16.1387 99.0338 16.208 99.1298 16.304C99.2258 16.4 99.2951 16.512 99.3378 16.64C99.3804 16.768 99.4018 16.9013 99.4018 17.04C99.4018 17.1787 99.3804 17.312 99.3378 17.44C99.2951 17.568 99.2258 17.68 99.1298 17.776C99.0338 17.872 98.9218 17.9413 98.7938 17.984C98.6658 18.016 98.5324 18.032 98.3938 18.032ZM109.348 28.128C109.06 28.128 108.772 28.0907 108.484 28.016C108.196 27.952 107.934 27.8347 107.7 27.664C107.465 27.4933 107.262 27.2853 107.092 27.04C106.921 26.7947 106.788 26.5387 106.692 26.272C106.596 25.9947 106.532 25.712 106.5 25.424C106.468 25.1253 106.452 24.832 106.452 24.544V20.688H104.292V19.52H106.452V16.24H107.764V19.52H110.74V20.704H107.764V24.544C107.764 24.7253 107.769 24.9067 107.78 25.088C107.801 25.2693 107.833 25.4507 107.876 25.632C107.929 25.8027 107.993 25.968 108.068 26.128C108.142 26.288 108.244 26.4373 108.372 26.576C108.5 26.704 108.649 26.8 108.82 26.864C108.99 26.9173 109.166 26.944 109.348 26.944C109.582 26.944 109.806 26.9013 110.02 26.816C110.233 26.7307 110.404 26.5973 110.532 26.416C110.67 26.2347 110.766 26.032 110.82 25.808C110.884 25.584 110.916 25.36 110.916 25.136C110.916 25.1147 110.916 25.0987 110.916 25.088C110.916 25.0667 110.916 25.0453 110.916 25.024H112.244C112.244 25.056 112.244 25.088 112.244 25.12C112.244 25.1413 112.244 25.168 112.244 25.2C112.244 25.456 112.217 25.712 112.164 25.968C112.11 26.224 112.025 26.4693 111.908 26.704C111.79 26.9387 111.641 27.152 111.46 27.344C111.289 27.5253 111.086 27.68 110.852 27.808C110.628 27.9253 110.388 28.0053 110.132 28.048C109.876 28.1013 109.614 28.128 109.348 28.128Z" fill="#1C1E26"/>
<path d="M31 34C24.3726 34 19 28.6274 19 22C19 15.3726 24.3726 10 31 10C37.6274 10 43 15.3726 43 22C42.9927 28.6244 37.6244 33.9927 31 34ZM24.7684 20.2516C24.0503 20.252 23.4052 20.6905 23.1406 21.358C22.8761 22.0256 23.0456 22.787 23.5684 23.2792C23.7066 23.4101 23.8656 23.5171 24.0388 23.596C24.0237 23.7713 24.0237 23.9475 24.0388 24.1228C24.0388 26.8108 27.1768 28.9972 31.0336 28.9972C34.8904 28.9972 38.0296 26.8108 38.0296 24.1228C38.0436 23.9475 38.0436 23.7713 38.0296 23.596C38.7579 23.2421 39.1432 22.4302 38.9566 21.6423C38.7701 20.8543 38.0617 20.3013 37.252 20.3116H37.1884C36.7585 20.3275 36.3496 20.5014 36.04 20.8C34.675 19.8718 33.0703 19.3591 31.42 19.324L32.2 15.58L34.7656 16.12C34.8317 16.7285 35.3451 17.1897 35.9572 17.1904C36.0009 17.1903 36.0446 17.1879 36.088 17.1832C36.7243 17.1193 37.1987 16.5678 37.1666 15.9291C37.1346 15.2905 36.6075 14.7892 35.968 14.7892C35.9226 14.7903 35.8774 14.7939 35.8324 14.8C35.4521 14.8404 35.1138 15.0597 34.9216 15.3904L31.984 14.8C31.958 14.7944 31.9314 14.7916 31.9048 14.7916C31.7313 14.7937 31.5822 14.915 31.5448 15.0844L30.6472 19.252C28.9766 19.2756 27.3495 19.7884 25.9672 20.7268C25.6432 20.4207 25.2141 20.2506 24.7684 20.2516ZM31.216 27.4288C31.1488 27.4288 31.0804 27.4288 31.0132 27.4288C30.946 27.4288 30.8776 27.4288 30.8104 27.4288C29.8145 27.425 28.8465 27.0997 28.0504 26.5012C27.9955 26.435 27.9693 26.3496 27.9777 26.264C27.986 26.1783 28.0282 26.0996 28.0948 26.0452C28.1528 25.9981 28.2253 25.9723 28.3 25.972C28.3748 25.972 28.4473 25.9978 28.5052 26.0452C29.1779 26.5381 29.9908 26.8026 30.8248 26.8C30.8832 26.8 30.9416 26.8 31 26.8C31.0708 26.8 31.1428 26.8 31.2136 26.8C32.0368 26.8014 32.8395 26.5436 33.508 26.0632C33.5712 25.9987 33.6577 25.9624 33.748 25.9624C33.8383 25.9624 33.9248 25.9987 33.988 26.0632C34.1181 26.1977 34.1155 26.412 33.982 26.5432V26.4952C33.1855 27.0978 32.2147 27.425 31.216 27.4276V27.4288ZM33.7684 24.496H33.7492L33.7588 24.4492C33.231 24.4132 32.7993 24.0147 32.7211 23.4915C32.643 22.9682 32.9394 22.461 33.4337 22.2723C33.9279 22.0836 34.4869 22.2642 34.7774 22.7064C35.0678 23.1486 35.0115 23.7334 34.642 24.112C34.4271 24.3465 34.1271 24.4849 33.8092 24.496H33.7672H33.7684ZM28.204 24.4C27.5413 24.4 27.004 23.8627 27.004 23.2C27.004 22.5373 27.5413 22 28.204 22C28.8667 22 29.404 22.5373 29.404 23.2C29.404 23.8627 28.8667 24.4 28.204 24.4Z" fill="#1C1E26"/>
</svg>
