<svg width="149" height="49" viewBox="0 0 149 49" fill="none" xmlns="http://www.w3.org/2000/svg">
<rect x="0.5" y="5.5" width="143" height="43" fill="#1C1E26" stroke="#F7F9FF"/>
<rect x="5.5" y="0.5" width="143" height="43" fill="#F7F9FF" stroke="#1C1E26"/>
<path d="M59.269 28V17.408H56.341V16.24H63.509V17.424H60.581V28H59.269ZM69.5508 28.128C69.2414 28.128 68.9268 28.1013 68.6068 28.048C68.2974 27.9947 67.9988 27.8987 67.7108 27.76C67.4334 27.6213 67.1774 27.44 66.9428 27.216C66.7188 26.992 66.5321 26.7413 66.3828 26.464C66.2441 26.1867 66.1428 25.8933 66.0788 25.584C66.0254 25.2747 65.9988 24.96 65.9988 24.64V22.88C65.9988 22.5707 66.0254 22.2613 66.0788 21.952C66.1321 21.632 66.2281 21.3333 66.3668 21.056C66.5161 20.7787 66.7028 20.528 66.9268 20.304C67.1614 20.08 67.4174 19.8987 67.6948 19.76C67.9721 19.6213 68.2654 19.5253 68.5748 19.472C68.8948 19.4187 69.2094 19.392 69.5188 19.392C69.8281 19.392 70.1374 19.4187 70.4468 19.472C70.7668 19.5253 71.0654 19.6213 71.3428 19.76C71.6201 19.8987 71.8708 20.08 72.0948 20.304C72.3294 20.528 72.5161 20.7787 72.6548 21.056C72.8041 21.3333 72.9054 21.632 72.9588 21.952C73.0121 22.2613 73.0388 22.5707 73.0388 22.88V24.352H67.3268V24.64C67.3268 24.8427 67.3428 25.0453 67.3748 25.248C67.4068 25.4507 67.4654 25.6427 67.5508 25.824C67.6361 26.0053 67.7481 26.176 67.8868 26.336C68.0361 26.4853 68.1961 26.608 68.3668 26.704C68.5481 26.7893 68.7401 26.8533 68.9427 26.896C69.1454 26.928 69.3481 26.944 69.5508 26.944C69.7854 26.944 70.0148 26.928 70.2388 26.896C70.4734 26.864 70.6921 26.8 70.8948 26.704C71.0974 26.5973 71.2734 26.4533 71.4228 26.272C71.5828 26.08 71.6681 25.872 71.6788 25.648H73.0068C72.9854 25.904 72.9268 26.16 72.8308 26.416C72.7348 26.6613 72.5961 26.8853 72.4148 27.088C72.2441 27.28 72.0468 27.4453 71.8228 27.584C71.5988 27.7227 71.3588 27.8347 71.1028 27.92C70.8574 27.9947 70.6014 28.048 70.3348 28.08C70.0788 28.112 69.8174 28.128 69.5508 28.128ZM71.7108 23.168V22.88C71.7108 22.6773 71.6948 22.48 71.6628 22.288C71.6308 22.0853 71.5721 21.8933 71.4868 21.712C71.4014 21.52 71.2894 21.3493 71.1508 21.2C71.0228 21.0507 70.8681 20.928 70.6868 20.832C70.5054 20.736 70.3134 20.6667 70.1108 20.624C69.9188 20.5813 69.7214 20.56 69.5188 20.56C69.3161 20.56 69.1134 20.5813 68.9108 20.624C68.7188 20.6667 68.5321 20.736 68.3508 20.832C68.1694 20.928 68.0094 21.0507 67.8708 21.2C67.7428 21.3493 67.6361 21.52 67.5508 21.712C67.4654 21.8933 67.4068 22.0853 67.3748 22.288C67.3428 22.48 67.3268 22.6773 67.3268 22.88V23.168H71.7108ZM75.8965 28V26.816H78.5845V17.408H76.1525V16.24H79.8965V26.816H82.3285V28H75.8965ZM88.7383 28.128C88.4289 28.128 88.1143 28.1013 87.7943 28.048C87.4849 27.9947 87.1863 27.8987 86.8983 27.76C86.6209 27.6213 86.3649 27.44 86.1303 27.216C85.9063 26.992 85.7196 26.7413 85.5703 26.464C85.4316 26.1867 85.3303 25.8933 85.2663 25.584C85.2129 25.2747 85.1863 24.96 85.1863 24.64V22.88C85.1863 22.5707 85.2129 22.2613 85.2663 21.952C85.3196 21.632 85.4156 21.3333 85.5543 21.056C85.7036 20.7787 85.8903 20.528 86.1143 20.304C86.3489 20.08 86.6049 19.8987 86.8823 19.76C87.1596 19.6213 87.4529 19.5253 87.7623 19.472C88.0823 19.4187 88.3969 19.392 88.7063 19.392C89.0156 19.392 89.3249 19.4187 89.6343 19.472C89.9543 19.5253 90.2529 19.6213 90.5303 19.76C90.8076 19.8987 91.0583 20.08 91.2823 20.304C91.5169 20.528 91.7036 20.7787 91.8423 21.056C91.9916 21.3333 92.0929 21.632 92.1463 21.952C92.1996 22.2613 92.2263 22.5707 92.2263 22.88V24.352H86.5143V24.64C86.5143 24.8427 86.5303 25.0453 86.5623 25.248C86.5943 25.4507 86.6529 25.6427 86.7383 25.824C86.8236 26.0053 86.9356 26.176 87.0743 26.336C87.2236 26.4853 87.3836 26.608 87.5543 26.704C87.7356 26.7893 87.9276 26.8533 88.1302 26.896C88.3329 26.928 88.5356 26.944 88.7383 26.944C88.9729 26.944 89.2023 26.928 89.4263 26.896C89.6609 26.864 89.8796 26.8 90.0823 26.704C90.2849 26.5973 90.4609 26.4533 90.6103 26.272C90.7703 26.08 90.8556 25.872 90.8663 25.648H92.1943C92.1729 25.904 92.1143 26.16 92.0183 26.416C91.9223 26.6613 91.7836 26.8853 91.6023 27.088C91.4316 27.28 91.2343 27.4453 91.0103 27.584C90.7863 27.7227 90.5463 27.8347 90.2903 27.92C90.0449 27.9947 89.7889 28.048 89.5223 28.08C89.2663 28.112 89.0049 28.128 88.7383 28.128ZM90.8983 23.168V22.88C90.8983 22.6773 90.8823 22.48 90.8503 22.288C90.8183 22.0853 90.7596 21.8933 90.6743 21.712C90.5889 21.52 90.4769 21.3493 90.3383 21.2C90.2103 21.0507 90.0556 20.928 89.8743 20.832C89.6929 20.736 89.5009 20.6667 89.2983 20.624C89.1063 20.5813 88.9089 20.56 88.7063 20.56C88.5036 20.56 88.3009 20.5813 88.0983 20.624C87.9063 20.6667 87.7196 20.736 87.5383 20.832C87.3569 20.928 87.1969 21.0507 87.0583 21.2C86.9303 21.3493 86.8236 21.52 86.7383 21.712C86.6529 21.8933 86.5943 22.0853 86.5623 22.288C86.5303 22.48 86.5143 22.6773 86.5143 22.88V23.168H90.8983ZM98.236 31.408C97.98 31.408 97.7187 31.392 97.452 31.36C97.196 31.328 96.9453 31.2693 96.7 31.184C96.4547 31.0987 96.22 30.9813 95.996 30.832C95.772 30.6933 95.58 30.5173 95.42 30.304C95.26 30.1013 95.132 29.8773 95.036 29.632C94.94 29.3867 94.8867 29.1307 94.876 28.864H96.204C96.2147 29.0987 96.284 29.312 96.412 29.504C96.5507 29.696 96.7213 29.8453 96.924 29.952C97.1267 30.0587 97.34 30.128 97.564 30.16C97.788 30.2027 98.012 30.224 98.236 30.224C98.4387 30.224 98.636 30.2027 98.828 30.16C99.0307 30.128 99.2173 30.0587 99.388 29.952C99.5587 29.856 99.708 29.7333 99.836 29.584C99.9747 29.4347 100.081 29.2693 100.156 29.088C100.241 28.9067 100.295 28.7147 100.316 28.512C100.348 28.32 100.364 28.1227 100.364 27.92V26.464C100.257 26.72 100.119 26.96 99.948 27.184C99.7773 27.3973 99.5747 27.5787 99.34 27.728C99.116 27.8773 98.8653 27.9787 98.588 28.032C98.3213 28.096 98.0547 28.128 97.788 28.128C97.4893 28.128 97.196 28.096 96.908 28.032C96.6307 27.968 96.3693 27.856 96.124 27.696C95.8787 27.536 95.6653 27.3387 95.484 27.104C95.3027 26.8693 95.1587 26.6187 95.052 26.352C94.9453 26.0747 94.8707 25.792 94.828 25.504C94.796 25.216 94.78 24.928 94.78 24.64V22.88C94.78 22.592 94.796 22.304 94.828 22.016C94.8707 21.728 94.9453 21.4507 95.052 21.184C95.1587 20.9067 95.3027 20.6507 95.484 20.416C95.6653 20.1813 95.8787 19.984 96.124 19.824C96.3693 19.664 96.6307 19.552 96.908 19.488C97.196 19.424 97.4893 19.392 97.788 19.392C98.0547 19.392 98.3213 19.424 98.588 19.488C98.8653 19.5413 99.116 19.6427 99.34 19.792C99.5747 19.9413 99.7773 20.128 99.948 20.352C100.119 20.5653 100.257 20.8 100.364 21.056V19.52H101.692V27.92C101.692 28.2293 101.665 28.5387 101.612 28.848C101.559 29.1573 101.463 29.4507 101.324 29.728C101.185 30.0053 101.004 30.256 100.78 30.48C100.567 30.704 100.321 30.8853 100.044 31.024C99.7667 31.1733 99.4733 31.2747 99.164 31.328C98.8547 31.3813 98.5453 31.408 98.236 31.408ZM98.284 26.96C98.4867 26.96 98.684 26.9387 98.876 26.896C99.068 26.8533 99.2493 26.784 99.42 26.688C99.5907 26.5813 99.74 26.4533 99.868 26.304C99.996 26.144 100.097 25.9733 100.172 25.792C100.247 25.6107 100.295 25.424 100.316 25.232C100.348 25.0293 100.364 24.832 100.364 24.64V22.88C100.364 22.688 100.348 22.496 100.316 22.304C100.295 22.1013 100.247 21.9093 100.172 21.728C100.097 21.5467 99.996 21.3813 99.868 21.232C99.74 21.072 99.5907 20.944 99.42 20.848C99.2493 20.7413 99.068 20.6667 98.876 20.624C98.684 20.5813 98.4867 20.56 98.284 20.56C98.0813 20.56 97.8787 20.5813 97.676 20.624C97.484 20.6667 97.2973 20.736 97.116 20.832C96.9453 20.928 96.7907 21.056 96.652 21.216C96.5133 21.3653 96.4013 21.5307 96.316 21.712C96.2413 21.8933 96.188 22.0853 96.156 22.288C96.124 22.48 96.108 22.6773 96.108 22.88V24.64C96.108 24.8427 96.124 25.0453 96.156 25.248C96.188 25.44 96.2413 25.6267 96.316 25.808C96.4013 25.9893 96.5133 26.16 96.652 26.32C96.7907 26.4693 96.9453 26.592 97.116 26.688C97.2973 26.784 97.484 26.8533 97.676 26.896C97.8787 26.9387 98.0813 26.96 98.284 26.96ZM105.606 28V19.52H106.934V21.52C107.008 21.2427 107.11 20.976 107.238 20.72C107.376 20.4533 107.547 20.2187 107.75 20.016C107.952 19.8027 108.192 19.648 108.47 19.552C108.747 19.4453 109.03 19.392 109.318 19.392C109.542 19.392 109.76 19.4187 109.974 19.472C110.198 19.5253 110.4 19.616 110.582 19.744C110.763 19.872 110.918 20.032 111.046 20.224C111.174 20.4053 111.275 20.6027 111.35 20.816C111.424 21.0293 111.472 21.248 111.494 21.472C111.515 21.6853 111.526 21.904 111.526 22.128H110.198C110.198 21.9467 110.182 21.7653 110.15 21.584C110.118 21.392 110.054 21.216 109.958 21.056C109.862 20.896 109.728 20.7787 109.558 20.704C109.387 20.6187 109.206 20.576 109.014 20.576C108.79 20.576 108.566 20.6133 108.342 20.688C108.128 20.752 107.936 20.8587 107.766 21.008C107.595 21.1573 107.456 21.3333 107.35 21.536C107.243 21.7387 107.158 21.952 107.094 22.176C107.03 22.3893 106.987 22.608 106.966 22.832C106.944 23.056 106.934 23.28 106.934 23.504V28H105.606ZM116.704 28.128C116.48 28.128 116.25 28.112 116.016 28.08C115.781 28.048 115.557 27.9893 115.344 27.904C115.13 27.8187 114.933 27.7013 114.752 27.552C114.57 27.4027 114.421 27.232 114.304 27.04C114.186 26.8373 114.101 26.624 114.048 26.4C113.994 26.1653 113.968 25.9307 113.968 25.696C113.968 25.408 114.01 25.12 114.096 24.832C114.192 24.544 114.341 24.2933 114.544 24.08C114.746 23.856 114.981 23.6747 115.248 23.536C115.514 23.3973 115.786 23.2907 116.064 23.216C116.352 23.1307 116.64 23.0773 116.928 23.056C117.226 23.024 117.525 23.008 117.824 23.008H119.552V22.16C119.552 21.9893 119.53 21.824 119.488 21.664C119.445 21.504 119.37 21.36 119.264 21.232C119.157 21.104 119.029 20.9973 118.88 20.912C118.741 20.816 118.592 20.7467 118.432 20.704C118.282 20.6507 118.122 20.6187 117.952 20.608C117.792 20.5867 117.632 20.576 117.472 20.576C117.237 20.576 117.002 20.5973 116.768 20.64C116.533 20.672 116.309 20.7467 116.096 20.864C115.893 20.9707 115.722 21.1253 115.584 21.328C115.456 21.52 115.392 21.7333 115.392 21.968H114.064C114.064 21.7013 114.106 21.44 114.192 21.184C114.288 20.928 114.416 20.6987 114.576 20.496C114.746 20.2827 114.944 20.1067 115.168 19.968C115.392 19.8187 115.632 19.7013 115.888 19.616C116.144 19.5307 116.405 19.472 116.672 19.44C116.938 19.408 117.205 19.392 117.472 19.392C117.749 19.392 118.021 19.408 118.288 19.44C118.565 19.472 118.832 19.536 119.088 19.632C119.354 19.728 119.605 19.856 119.84 20.016C120.074 20.176 120.272 20.368 120.432 20.592C120.592 20.816 120.704 21.0667 120.767 21.344C120.842 21.6107 120.88 21.8827 120.88 22.16V28H119.552V26.56C119.434 26.816 119.269 27.0507 119.056 27.264C118.853 27.4667 118.624 27.6373 118.368 27.776C118.112 27.904 117.84 27.9947 117.552 28.048C117.274 28.1013 116.992 28.128 116.704 28.128ZM117.2 26.96C117.392 26.96 117.584 26.944 117.776 26.912C117.968 26.88 118.154 26.832 118.336 26.768C118.517 26.704 118.688 26.6133 118.848 26.496C119.008 26.3787 119.141 26.24 119.248 26.08C119.365 25.92 119.445 25.744 119.488 25.552C119.53 25.36 119.552 25.168 119.552 24.976V24.176H117.824C117.642 24.176 117.461 24.1813 117.28 24.192C117.109 24.2027 116.933 24.2293 116.752 24.272C116.581 24.304 116.41 24.352 116.24 24.416C116.069 24.4693 115.909 24.5493 115.76 24.656C115.61 24.752 115.493 24.8853 115.408 25.056C115.333 25.216 115.296 25.3867 115.296 25.568C115.296 25.7813 115.349 25.9893 115.456 26.192C115.573 26.3947 115.728 26.5547 115.92 26.672C116.112 26.7787 116.314 26.8533 116.528 26.896C116.752 26.9387 116.976 26.96 117.2 26.96ZM123.289 28V19.52H124.617V20.24C124.681 20.112 124.761 19.9947 124.857 19.888C124.953 19.7707 125.06 19.6747 125.177 19.6C125.305 19.5253 125.439 19.472 125.577 19.44C125.727 19.408 125.876 19.392 126.025 19.392C126.207 19.392 126.383 19.4187 126.553 19.472C126.724 19.5147 126.879 19.5947 127.017 19.712C127.167 19.8187 127.284 19.952 127.369 20.112C127.465 20.2613 127.545 20.4213 127.609 20.592C127.663 20.4213 127.732 20.2613 127.817 20.112C127.913 19.952 128.025 19.8187 128.153 19.712C128.292 19.6053 128.447 19.5253 128.617 19.472C128.799 19.4187 128.975 19.392 129.145 19.392C129.327 19.392 129.503 19.4187 129.673 19.472C129.855 19.5147 130.015 19.5947 130.153 19.712C130.292 19.8187 130.409 19.952 130.505 20.112C130.601 20.2613 130.676 20.4213 130.729 20.592C130.783 20.7627 130.82 20.9387 130.841 21.12C130.863 21.2907 130.873 21.4667 130.873 21.648V28H129.545V21.648C129.545 21.5093 129.529 21.376 129.497 21.248C129.476 21.1093 129.423 20.992 129.337 20.896C129.263 20.7893 129.161 20.7093 129.033 20.656C128.905 20.592 128.777 20.56 128.649 20.56C128.511 20.56 128.377 20.592 128.249 20.656C128.132 20.7093 128.031 20.7893 127.945 20.896C127.871 20.992 127.817 21.1093 127.785 21.248C127.753 21.376 127.737 21.5093 127.737 21.648V28H126.425V21.648C126.425 21.5093 126.409 21.376 126.377 21.248C126.345 21.1093 126.287 20.992 126.201 20.896C126.127 20.7893 126.025 20.7093 125.897 20.656C125.78 20.592 125.652 20.56 125.513 20.56C125.385 20.56 125.257 20.592 125.129 20.656C125.001 20.7093 124.895 20.7893 124.809 20.896C124.735 20.992 124.681 21.1093 124.649 21.248C124.628 21.376 124.617 21.5093 124.617 21.648V28H123.289Z" fill="#1C1E26"/>
<path d="M31 34C37.6274 34 43 28.6274 43 22C43 15.3726 37.6274 10 31 10C24.3726 10 19 15.3726 19 22C19 28.6274 24.3726 34 31 34Z" fill="#1C1E26"/>
<path d="M35.578 17.1098C35.578 17.1098 36.8266 16.6243 36.7225 17.8035C36.6879 18.289 36.3757 19.9884 36.1329 21.8266L35.3006 27.2717C35.3006 27.2717 35.2312 28.0694 34.6069 28.2081C33.9827 28.3468 33.0462 27.7226 32.8728 27.5838C32.7341 27.4798 30.2717 25.9191 29.4046 25.1561C29.1618 24.948 28.8844 24.5318 29.4393 24.0463L33.0809 20.578C33.4971 20.1619 33.9133 19.1908 32.1792 20.3699L27.3237 23.6647C27.3237 23.6647 26.7688 24.0116 25.7283 23.6994L23.474 23.0058C23.474 23.0058 22.6416 22.4856 24.0636 21.9653C27.5318 20.3353 31.7977 18.6705 35.578 17.1098Z" fill="#F7F9FF"/>
</svg>
